<?xml version="1.0" encoding="UTF-8"?>
<!-- Created with Inkscape (http://www.inkscape.org/) -->
<svg width="120mm" height="40mm" inkscape:version="1.3.2 (1:1.3.2+202311252150+091e20ef0f)" sodipodi:docname="sonic-large.svg" version="1.1" viewBox="0 0 120 40" xmlns="http://www.w3.org/2000/svg" xmlns:inkscape="http://www.inkscape.org/namespaces/inkscape" xmlns:sodipodi="http://sodipodi.sourceforge.net/DTD/sodipodi-0.dtd">
 <sodipodi:namedview bordercolor="#000000" borderopacity="0.25" inkscape:current-layer="layer1" inkscape:cx="189.39064" inkscape:cy="167.27202" inkscape:deskcolor="#d1d1d1" inkscape:document-units="mm" inkscape:pagecheckerboard="0" inkscape:pageopacity="0.0" inkscape:showpageshadow="2" inkscape:window-height="970" inkscape:window-maximized="1" inkscape:window-width="1920" inkscape:window-x="0" inkscape:window-y="0" inkscape:zoom="1.4467452" pagecolor="#ffffff"/>
 <g inkscape:groupmode="layer" inkscape:label="Layer 1">
  <g transform="translate(-21.972 -50.065)" clip-rule="evenodd" fill-rule="evenodd">
   <g transform="matrix(.093081 0 0 .093081 -11.576 38.929)" fill="#842b25">
    <path d="m488.24 181.84c-12.801 0-22.987 5.506-31.109 16.38-8.259 10.599-12.663 22.988-13.352 36.753h-6.607v-64.283h6.607c1.101 5.369 3.992 8.259 9.36 8.259 2.616 0 7.709-0.688 15.693-2.477 7.708-1.79 14.315-2.891 18.995-2.891 17.069 0 31.247 5.781 42.534 17.344 2.34 2.615 4.405 5.231 6.332 7.846-6.057 10.324-8.947 21.886-9.085 34.275 0 12.388 3.579 23.675 9.223 33.999-14.316 24.227-41.571 45.012-63.87 65.384s-40.469 48.728-40.469 80.8c0 22.162 6.882 40.607 20.647 55.611 13.49 14.866 31.385 22.161 53.684 22.161 7.708 0 15.141-0.963 22.024-2.753-7.846-4.267-14.866-9.773-21.198-16.518-28.356-30.145-33.587-72.954-10.875-107.78 24.089-37.028 64.421-36.753 87.546 1.101 21.198 34.825 15.692 77.084-12.113 106.68-6.332 6.745-13.353 12.251-21.199 16.518 6.883 1.79 14.316 2.753 22.024 2.753 22.162 0 40.194-7.295 53.546-22.161 13.903-15.004 20.785-33.449 20.785-55.611 0-32.072-18.169-60.428-40.469-80.8-31.934-29.182-74.193-59.327-73.78-99.246 0-16.38 5.368-30.558 16.38-42.258 11.288-11.563 25.466-17.344 42.534-17.344 4.68 0 11.15 1.101 18.996 2.891 7.983 1.789 13.076 2.477 15.554 2.477 5.506 0 8.397-2.89 9.498-8.259h6.607v64.283h-6.607c-0.688-13.765-5.093-26.154-13.49-36.753-7.983-10.874-18.307-16.38-30.971-16.38-17.757 0-33.449 12.388-33.449 34.55 0 5.506 1.101 10.874 3.304 16.793 4.405 11.288 6.882 17.069 18.445 29.044l12.113 12.389 14.866 13.352 13.215 11.287c36.339 32.348 54.096 59.465 54.096 96.08 0 28.356-9.773 52.72-29.457 72.679-19.133 20.097-43.36 30.283-71.991 30.283-11.975 0-22.987-1.79-32.898-5.231-9.911 3.441-20.785 5.231-32.761 5.231-28.631 0-52.857-10.186-72.128-30.283-19.547-19.959-29.32-44.323-29.32-72.679 0-36.615 17.757-63.732 54.097-96.08l13.214-11.287 14.866-13.352 11.976-12.389c11.7-11.975 14.178-17.756 18.582-29.044 2.203-5.919 3.304-11.287 3.304-16.793 0-22.162-15.692-34.55-33.449-34.55zm51.619 302.55c8.672-3.854 16.518-9.222 23.538-16.38 24.915-24.227 30.421-63.732 12.113-93.464-17.344-28.219-50.655-30.008-69.651-2.478-20.372 29.595-14.866 71.165 10.462 95.942 7.157 7.158 15.004 12.526 23.538 16.38z"/>
    <path d="m523.48 399.35c-14.178 21.06-9.635 50.793 7.984 68.412 2.478 2.478 5.231 4.818 8.396 6.882 2.891-2.064 5.644-4.404 8.259-6.882 17.482-17.482 21.749-45.7 8.81-66.898-9.223-14.591-23.4-15.967-33.449-1.514z"/>
   </g>
   <g transform="matrix(.093081 0 0 .093081 49.187 6.0024)">
    <g fill="#842b25">
     <path d="m388.03 566.44 0.138 5.919c43.772 5.781 74.331 52.582 77.359 97.043 3.028 42.809-18.17 92.225-67.999 93.464-56.024-0.138-79.149-58.363-85.481-97.731-15.554-97.043 68.963-141.92 150.04-120.86 25.19 6.607 52.307 24.915 72.679 53.821l138.89 173.3v-37.027l-102.96-128.02c-40.606-50.655-88.508-71.853-144.12-73.78-42.671-1.239-84.655 12.388-112.46 47.489-19.271 24.502-29.182 55.748-27.117 88.509 3.717 59.327 51.894 104.89 112.05 100.35 124.02-9.361 120.17-202.48-11.012-202.48z"/>
     <path d="m756.11 561.34s-18.032 2.477-18.583 22.024v160.09s1.377 22.024 20.097 22.024h-61.667c18.583 0 19.959-22.024 19.959-22.024v-160.09c-0.55-19.547-18.445-22.024-18.445-22.024z"/>
     <path d="m860.18 569.05c19.821 0 34.963 5.093 49.691 17.757l13.765-19.409c-16.793-3.028-35.376-6.056-53.545-6.056-59.878 0-101.17 40.469-101.17 102.41 0 50.242 39.093 101.72 92.776 101.72 36.615 0 70.614-18.032 89.885-40.193l-4.68-4.13c-18.72 20.785-42.258 30.283-65.246 30.283-61.667 0-90.16-53.683-90.436-108.47 0-40.882 22.988-73.918 68.963-73.918z"/>
     <path d="m128.29 720.32c13.49 22.988 44.599 45.149 85.893 45.149 32.623 0 56.437-20.097 60.016-45.562 3.992-29.319-17.619-51.619-41.433-64.971-38.542-21.473-90.436-29.044-85.756-62.63 2.478-19.134 20.097-28.494 39.919-28.356 19.133 0.138 40.607 7.295 51.481 27.805l13.077-16.243c-18.996-11.7-40.607-18.032-65.935-18.032-27.805 0-57.262 14.591-57.262 45.425 0 43.497 58.088 53.959 95.529 75.157 16.931 9.497 31.246 22.024 31.522 42.946 0.137 21.061-15.692 37.854-41.02 37.854-39.781 0-59.878-30.834-67.999-54.785z"/>
     <path d="m128.29 842.7 4.818-0.688c0 3.166 0.688 5.368 1.652 6.47 1.101 1.101 2.477 1.789 4.267 1.789 1.376 0 2.477-0.413 3.579-0.963 0.963-0.689 1.651-1.515 1.927-2.478 0.413-1.101 0.55-2.891 0.55-5.231v-28.08h5.369v27.667c0 3.579-0.413 6.194-1.239 8.122-0.826 1.789-2.065 3.166-3.854 4.267-1.79 0.963-3.855 1.376-6.195 1.376-3.579 0-6.332-0.963-8.259-3.028-1.789-2.065-2.615-5.093-2.615-9.223zm90.711 2.065 5.093 0.688c-0.826 3.029-2.202 5.369-4.405 7.021-2.202 1.651-5.093 2.477-8.396 2.477-4.267 0-7.709-1.376-10.186-3.992-2.616-2.615-3.854-6.469-3.854-11.287 0-4.955 1.238-8.672 3.854-11.425 2.477-2.753 5.781-4.129 9.911-4.129 3.854 0 7.02 1.376 9.497 3.991 2.478 2.753 3.855 6.47 3.855 11.288 0 0.275-0.138 0.688-0.138 1.376h-21.886c0.275 3.166 1.101 5.782 2.753 7.433 1.651 1.79 3.716 2.616 6.194 2.616 1.789 0 3.303-0.413 4.68-1.377 1.239-0.963 2.202-2.615 3.028-4.68zm-16.38-8.121h16.38c-0.137-2.478-0.826-4.267-1.789-5.506-1.652-1.927-3.717-2.891-6.194-2.891-2.341 0-4.268 0.688-5.782 2.203-1.514 1.514-2.34 3.578-2.615 6.194zm73.367 17.619-8.947-29.457h5.231l4.68 16.931 1.789 6.469c0-0.275 0.551-2.34 1.514-6.194l4.543-17.206h5.231l4.404 17.068 1.377 5.644 1.652-5.781 5.093-16.931h4.955l-9.223 29.457h-5.23l-4.68-17.757-1.101-4.955-6.057 22.712zm95.942-9.498 5.231 0.688c-0.826 3.029-2.34 5.369-4.543 7.021-2.202 1.651-4.955 2.477-8.396 2.477-4.267 0-7.709-1.376-10.186-3.992-2.478-2.615-3.855-6.469-3.855-11.287 0-4.955 1.377-8.672 3.855-11.425 2.615-2.753 5.919-4.129 9.91-4.129 3.855 0 7.158 1.376 9.636 3.991 2.478 2.753 3.716 6.47 3.716 11.288v1.376h-21.886c0.138 3.166 1.101 5.782 2.615 7.433 1.652 1.79 3.717 2.616 6.195 2.616 1.789 0 3.441-0.413 4.68-1.377 1.239-0.963 2.34-2.615 3.028-4.68zm-16.243-8.121h16.381c-0.276-2.478-0.964-4.267-1.927-5.506-1.652-1.927-3.579-2.891-6.195-2.891-2.202 0-4.129 0.688-5.781 2.203-1.514 1.514-2.34 3.578-2.478 6.194zm67.862 17.619v-40.744h4.955v40.744zm52.857 0v-40.744h4.956v40.744zm73.23-9.498 5.093 0.688c-0.826 3.029-2.34 5.369-4.542 7.021-2.065 1.651-4.956 2.477-8.397 2.477-4.267 0-7.571-1.376-10.186-3.992-2.478-2.615-3.717-6.469-3.717-11.287 0-4.955 1.239-8.672 3.855-11.425 2.477-2.753 5.781-4.129 9.773-4.129 3.991 0 7.157 1.376 9.635 3.991 2.478 2.753 3.717 6.47 3.717 11.288v1.376h-21.887c0.138 3.166 1.102 5.782 2.753 7.433 1.652 1.79 3.717 2.616 6.057 2.616 1.927 0 3.441-0.413 4.68-1.377 1.377-0.963 2.34-2.615 3.166-4.68zm-16.38-8.121h16.38c-0.275-2.478-0.826-4.267-1.927-5.506-1.514-1.927-3.579-2.891-6.057-2.891-2.34 0-4.267 0.688-5.781 2.203-1.514 1.514-2.478 3.578-2.615 6.194zm67.999 17.619v-29.457h4.404v4.405c1.239-2.065 2.203-3.442 3.304-4.13 0.964-0.688 1.927-0.963 3.166-0.963 1.652 0 3.304 0.55 5.093 1.651l-1.789 4.543c-1.239-0.688-2.34-0.964-3.579-0.964-1.102 0-2.065 0.276-2.891 0.964-0.964 0.55-1.514 1.514-1.927 2.615-0.551 1.79-0.826 3.717-0.826 5.919v15.417zm57.262-8.81 4.818-0.688c0.275 1.927 1.101 3.441 2.34 4.543 1.239 0.963 3.028 1.514 5.368 1.514 2.202 0 3.992-0.413 5.093-1.377 1.101-0.963 1.652-2.065 1.652-3.303 0-1.102-0.551-2.065-1.514-2.753-0.688-0.413-2.34-0.964-5.093-1.652-3.579-0.964-6.195-1.79-7.571-2.478-1.377-0.688-2.478-1.514-3.166-2.753-0.826-1.239-1.101-2.478-1.101-3.992 0-1.239 0.275-2.477 0.826-3.579 0.688-1.101 1.514-2.064 2.477-2.753 0.826-0.55 1.79-1.101 3.166-1.514 1.377-0.275 2.753-0.55 4.268-0.55 2.34 0 4.404 0.275 6.056 0.963 1.79 0.688 3.028 1.652 3.854 2.753s1.514 2.616 1.79 4.543l-4.956 0.688c-0.137-1.514-0.826-2.753-1.927-3.579-0.963-0.826-2.477-1.239-4.405-1.239-2.34 0-3.991 0.275-4.955 1.101-0.963 0.689-1.376 1.652-1.376 2.616 0 0.688 0.137 1.239 0.55 1.789 0.413 0.551 1.101 0.964 1.927 1.377 0.551 0.137 1.927 0.55 4.405 1.238 3.441 0.964 5.919 1.652 7.296 2.341 1.514 0.55 2.615 1.376 3.303 2.477 0.826 1.239 1.239 2.616 1.239 4.405 0 1.652-0.413 3.304-1.514 4.68-0.964 1.514-2.34 2.615-4.13 3.441-1.789 0.826-3.854 1.239-6.194 1.239-3.854 0-6.745-0.826-8.81-2.34-1.927-1.652-3.165-3.992-3.716-7.158zm86.719 8.81v-40.744h5.369v36.064h19.959v4.68zm82.177-4.405 0.688 4.405c-1.376 0.275-2.753 0.413-3.716 0.413-1.927 0-3.304-0.275-4.267-0.826-0.964-0.551-1.652-1.376-2.065-2.34-0.413-0.826-0.688-2.891-0.688-5.781v-17.069h-3.579v-3.854h3.579v-7.433l5.093-3.028v10.461h4.955v3.854h-4.955v17.344c0 1.376 0 2.34 0.275 2.753 0.138 0.413 0.413 0.688 0.826 0.964 0.413 0.137 0.964 0.275 1.652 0.275 0.55 0 1.239 0 2.202-0.138zm64.145 4.405v-3.717c-1.789 2.891-4.542 4.405-8.259 4.405-2.34 0-4.405-0.688-6.47-1.927-1.927-1.376-3.441-3.166-4.542-5.368-1.101-2.34-1.514-5.231-1.514-8.122 0-3.028 0.413-5.643 1.376-7.983 0.964-2.478 2.478-4.267 4.405-5.506s4.13-1.927 6.607-1.927c1.79 0 3.304 0.413 4.68 1.101 1.377 0.826 2.478 1.789 3.442 3.028v-14.728h4.955v40.744zm-15.692-14.729c0 3.717 0.688 6.608 2.34 8.535 1.514 1.789 3.441 2.753 5.644 2.753 2.202 0 3.991-0.826 5.506-2.616 1.514-1.789 2.34-4.68 2.34-8.259 0-3.991-0.826-7.02-2.34-8.809-1.515-1.927-3.442-2.891-5.782-2.891-2.202 0-3.992 0.964-5.506 2.753-1.514 1.79-2.202 4.68-2.202 8.534z"/>
    </g>
    <path d="m945.8 854.13v-5.781h5.781v5.781z" fill="#1b1918"/>
    <g fill="#842b25">
     <path d="m646.27 561.34s16.242 2.34 16.242 21.473v166.97l5.644 0.551 5.368-0.551v-166.97c0-19.133 16.381-21.473 16.381-21.473h-21.749z"/>
     <path d="m503.66 765.48s16.243-2.34 16.243-21.473v-166.97l5.643-0.551 5.369 0.551v166.97c0 19.133 16.38 21.473 16.38 21.473h-21.749z"/>
     <path d="m930.38 521.54c5.093 0 9.91 2.065 13.352 5.506 3.303 3.441 5.506 8.121 5.506 13.49 0 5.093-2.203 9.911-5.506 13.352-3.442 3.303-8.259 5.506-13.352 5.506-5.369 0-10.049-2.203-13.49-5.506-3.441-3.441-5.506-8.259-5.506-13.352 0-5.369 2.065-10.049 5.506-13.49s8.121-5.506 13.49-5.506zm11.7 7.158c-3.028-3.028-7.158-4.818-11.7-4.818-4.818 0-8.948 1.79-11.838 4.818-3.029 2.89-4.818 7.02-4.818 11.838 0 4.542 1.789 8.672 4.818 11.7 2.89 2.891 7.02 4.818 11.838 4.818 4.542 0 8.672-1.927 11.7-4.818 2.89-3.028 4.818-7.158 4.818-11.7 0-4.818-1.928-8.948-4.818-11.838zm-21.198 18.858v-11.563h-3.992v-2.34h10.874v2.34h-3.992v11.563zm8.672 0v-13.903h4.267l2.478 9.498 2.477-9.498h4.267v13.903h-2.615v-11.012l-2.753 11.012h-2.615l-2.753-11.012v11.012z"/>
    </g>
   </g>
  </g>
 </g>
</svg>
