<?xml version="1.0" encoding="UTF-8"?>
<svg width="1080" height="1080" fill="none" inkscape:version="1.3.2 (1:1.3.2+202311252150+091e20ef0f)" sodipodi:docname="sonic-icon.svg" version="1.1" viewBox="0 0 1080 1080" xmlns="http://www.w3.org/2000/svg" xmlns:inkscape="http://www.inkscape.org/namespaces/inkscape" xmlns:sodipodi="http://sodipodi.sourceforge.net/DTD/sodipodi-0.dtd">
 <sodipodi:namedview bordercolor="#000000" borderopacity="0.25" inkscape:current-layer="svg11" inkscape:cx="1181.0837" inkscape:cy="931.03448" inkscape:deskcolor="#d1d1d1" inkscape:pagecheckerboard="0" inkscape:pageopacity="0.0" inkscape:showpageshadow="2" inkscape:window-height="970" inkscape:window-maximized="1" inkscape:window-width="1920" inkscape:window-x="0" inkscape:window-y="0" inkscape:zoom="0.18796296" pagecolor="#ffffff"/>
 <g transform="matrix(2.8008 0 0 2.8008 -972.25 -396.87)" clip-rule="evenodd" fill="#842b25" fill-rule="evenodd">
  <path d="m488.24 181.84c-12.801 0-22.987 5.506-31.109 16.38-8.259 10.599-12.663 22.988-13.352 36.753h-6.607v-64.283h6.607c1.101 5.369 3.992 8.259 9.36 8.259 2.616 0 7.709-0.688 15.693-2.477 7.708-1.79 14.315-2.891 18.995-2.891 17.069 0 31.247 5.781 42.534 17.344 2.34 2.615 4.405 5.231 6.332 7.846-6.057 10.324-8.947 21.886-9.085 34.275 0 12.388 3.579 23.675 9.223 33.999-14.316 24.227-41.571 45.012-63.87 65.384s-40.469 48.728-40.469 80.8c0 22.162 6.882 40.607 20.647 55.611 13.49 14.866 31.385 22.161 53.684 22.161 7.708 0 15.141-0.963 22.024-2.753-7.846-4.267-14.866-9.773-21.198-16.518-28.356-30.145-33.587-72.954-10.875-107.78 24.089-37.028 64.421-36.753 87.546 1.101 21.198 34.825 15.692 77.084-12.113 106.68-6.332 6.745-13.353 12.251-21.199 16.518 6.883 1.79 14.316 2.753 22.024 2.753 22.162 0 40.194-7.295 53.546-22.161 13.903-15.004 20.785-33.449 20.785-55.611 0-32.072-18.169-60.428-40.469-80.8-31.934-29.182-74.193-59.327-73.78-99.246 0-16.38 5.368-30.558 16.38-42.258 11.288-11.563 25.466-17.344 42.534-17.344 4.68 0 11.15 1.101 18.996 2.891 7.983 1.789 13.076 2.477 15.554 2.477 5.506 0 8.397-2.89 9.498-8.259h6.607v64.283h-6.607c-0.688-13.765-5.093-26.154-13.49-36.753-7.983-10.874-18.307-16.38-30.971-16.38-17.757 0-33.449 12.388-33.449 34.55 0 5.506 1.101 10.874 3.304 16.793 4.405 11.288 6.882 17.069 18.445 29.044l12.113 12.389 14.866 13.352 13.215 11.287c36.339 32.348 54.096 59.465 54.096 96.08 0 28.356-9.773 52.72-29.457 72.679-19.133 20.097-43.36 30.283-71.991 30.283-11.975 0-22.987-1.79-32.898-5.231-9.911 3.441-20.785 5.231-32.761 5.231-28.631 0-52.857-10.186-72.128-30.283-19.547-19.959-29.32-44.323-29.32-72.679 0-36.615 17.757-63.732 54.097-96.08l13.214-11.287 14.866-13.352 11.976-12.389c11.7-11.975 14.178-17.756 18.582-29.044 2.203-5.919 3.304-11.287 3.304-16.793 0-22.162-15.692-34.55-33.449-34.55zm51.619 302.55c8.672-3.854 16.518-9.222 23.538-16.38 24.915-24.227 30.421-63.732 12.113-93.464-17.344-28.219-50.655-30.008-69.651-2.478-20.372 29.595-14.866 71.165 10.462 95.942 7.157 7.158 15.004 12.526 23.538 16.38z"/>
  <path d="m523.48 399.35c-14.178 21.06-9.635 50.793 7.984 68.412 2.478 2.478 5.231 4.818 8.396 6.882 2.891-2.064 5.644-4.404 8.259-6.882 17.482-17.482 21.749-45.7 8.81-66.898-9.223-14.591-23.4-15.967-33.449-1.514z"/>
 </g>
</svg>
